<?xml version="1.0" encoding="UTF-8"?>
<svg version="1.1" xmlns="http://www.w3.org/2000/svg" width="225" height="225">
<path d="M0 0 C13.7047569 14.2725254 18.79564065 31.5276973 18.515625 50.92578125 C18.0574684 65.98069526 11.19819504 81.02147565 0.65234375 91.765625 C-14.84419397 106.14972345 -30.55453214 111.85724699 -51.546875 111.28515625 C-68.58880052 110.41177322 -83.35098484 101.77476252 -94.9453125 89.55859375 C-106.08043731 76.37003337 -111.61403459 59.93021091 -111.0703125 42.73046875 C-109.13894473 23.59416159 -100.81260931 7.26906813 -86.09765625 -5.25 C-59.43971307 -25.29746457 -24.10392189 -22.5787769 0 0 Z M-94.546875 8.06640625 C-102.80233407 19.13896541 -107.27728006 31.92260098 -107.125 45.6875 C-107.11815186 46.64615967 -107.11130371 47.60481934 -107.10424805 48.5925293 C-106.7143784 65.95852086 -99.73472164 79.51968411 -87.78125 91.9140625 C-76.03792514 102.83920489 -59.79940272 108.38200329 -43.8671875 108.14453125 C-25.88724258 106.97384688 -11.80856766 99.92058844 0.3125 86.9375 C10.97696805 74.69376796 15.92925 59.64035963 15.625 43.49609375 C14.15237855 26.72661703 7.32431966 10.70309315 -5.48046875 -0.5078125 C-33.74528883 -22.66626136 -71.02118656 -18.9552324 -94.546875 8.06640625 Z " fill="#C7A874" transform="translate(156.6875,66.0625)"/>
<path d="M0 0 C0.66 0.33 1.32 0.66 2 1 C2 1.99 2 2.98 2 4 C3.39412109 3.94779297 3.39412109 3.94779297 4.81640625 3.89453125 C17.1924592 3.62352279 17.1924592 3.62352279 23 7 C24 8 24 8 24.375 11.125 C23.90966757 15.93343508 22.32200285 18.64813645 19 22 C12.58228972 27.19096212 4.36327695 33.53157718 -3.66796875 35.73046875 C-6.41368697 36.89112337 -6.41368697 36.89112337 -7.3125 40.625 C-7.539375 41.73875 -7.76625 42.8525 -8 44 C-7.25951416 44.13575439 -6.51902832 44.27150879 -5.75610352 44.41137695 C-2.35697306 45.03844739 1.04023592 45.67539889 4.4375 46.3125 C5.60216797 46.52583984 6.76683594 46.73917969 7.96679688 46.95898438 C22.84829338 49.76760484 22.84829338 49.76760484 27 52 C27.33 52.99 27.66 53.98 28 55 C22.51359706 54.28852796 17.15489457 53.23528571 11.75 52.0625 C4.8529581 50.58604043 -2.04624358 49.18760784 -9 48 C-8.85769192 49.41702513 -8.71099254 50.8336096 -8.5625 52.25 C-8.48128906 53.03890625 -8.40007812 53.8278125 -8.31640625 54.640625 C-8.02365007 56.82364639 -7.57935581 58.8773182 -7 61 C-7.99 61 -8.98 61 -10 61 C-12.58926331 58.41073669 -12.37398043 56.97294721 -12.625 53.375 C-12.69976562 52.37210938 -12.77453125 51.36921875 -12.8515625 50.3359375 C-12.90054688 49.56507813 -12.94953125 48.79421875 -13 48 C-13.77085938 47.93941406 -14.54171875 47.87882812 -15.3359375 47.81640625 C-16.33882812 47.73261719 -17.34171875 47.64882812 -18.375 47.5625 C-19.37273438 47.48128906 -20.37046875 47.40007812 -21.3984375 47.31640625 C-24 47 -24 47 -26 46 C-25.90234375 44.203125 -25.90234375 44.203125 -25 42 C-22.12890625 40.296875 -22.12890625 40.296875 -18.5625 38.75 C-16.80099609 37.96882813 -16.80099609 37.96882813 -15.00390625 37.171875 C-12 36 -12 36 -10 36 C-9.88785156 34.71222656 -9.77570313 33.42445312 -9.66015625 32.09765625 C-9.09788296 27.03719667 -7.86994443 22.31262601 -6.4375 17.4375 C-6.20353516 16.61958984 -5.96957031 15.80167969 -5.72851562 14.95898438 C-5.15880046 12.97079473 -4.58033086 10.98511701 -4 9 C-5.98 8.34 -7.96 7.68 -10 7 C-10 5.68 -10 4.36 -10 3 C-5.25 2.875 -5.25 2.875 -3 4 C-2.01 2.68 -1.02 1.36 0 0 Z M0 9 C-1.10647711 10.91766335 -1.10647711 10.91766335 -1.703125 13.33203125 C-1.9609375 14.21310547 -2.21875 15.09417969 -2.484375 16.00195312 C-2.73703125 16.92943359 -2.9896875 17.85691406 -3.25 18.8125 C-3.518125 19.72837891 -3.78625 20.64425781 -4.0625 21.58789062 C-5.20860372 25.60217739 -6 28.7856876 -6 33 C4.1203872 29.2071675 14.89356122 23.15965817 21 14 C20.84298574 11.38084878 20.84298574 11.38084878 20 9 C17.05638781 7.5281939 14.39951798 7.86819227 11.125 7.875 C9.89007813 7.87242188 8.65515625 7.86984375 7.3828125 7.8671875 C3.5745114 7.97342652 3.5745114 7.97342652 0 9 Z M-18 43 C-18 43.33 -18 43.66 -18 44 C-16.02 44 -14.04 44 -12 44 C-11.67 42.68 -11.34 41.36 -11 40 C-13.91694244 40 -15.60776246 41.42615951 -18 43 Z " fill="#C5A672" transform="translate(83,89)"/>
<path d="M0 0 C2.4375 1.9375 2.4375 1.9375 4 5 C4.30936646 8.03280558 4.23810226 10.96419621 4 14 C2.68 14 1.36 14 0 14 C-0.495 9.545 -0.495 9.545 -1 5 C-5.33258968 3.91685258 -5.65446695 3.93062846 -9.25 6 C-18.97140961 11.84555349 -28.32263712 20.96791136 -32 32 C-32.06665376 33.39439664 -32.08538199 34.79169875 -32.0625 36.1875 C-32.041875 37.445625 -32.02125 38.70375 -32 40 C-27.01103329 42.49448336 -19.45304532 40.90476226 -14 40.25 C-13.30156982 40.16637207 -12.60313965 40.08274414 -11.88354492 39.99658203 C-6.46546519 39.25628619 -2.70310397 37.66213432 2 35 C5 34.75 5 34.75 7 35 C7 35.66 7 36.32 7 37 C5.5437455 37.67119549 4.08492133 38.33681807 2.625 39 C1.81289062 39.37125 1.00078125 39.7425 0.1640625 40.125 C-2 41 -2 41 -4 41 C-3.94199219 41.556875 -3.88398438 42.11375 -3.82421875 42.6875 C-3.44547836 49.0936231 -4.82095037 53.11108441 -9 58 C-11.8020426 60.31168514 -13.07183205 61 -16.6875 61 C-19 60 -19 60 -20.5 57.8125 C-21.19758391 53.88859051 -20.11246973 52.33906506 -18 49 C-16.40096309 46.92314437 -14.73482099 44.96925626 -13 43 C-13.67933594 43.32226562 -14.35867187 43.64453125 -15.05859375 43.9765625 C-18.52160658 45.18148861 -21.40004481 45.33582936 -25.0625 45.375 C-26.27035156 45.40335938 -27.47820312 45.43171875 -28.72265625 45.4609375 C-32 45 -32 45 -34.37109375 43.171875 C-36.75829203 39.98894397 -37 37.9894392 -37 34 C-34.18552376 21.21101995 -23.50068114 10.12220112 -13 3 C-8.5461199 0.20540857 -5.26885217 -0.78057069 0 0 Z M-14.1875 48.9765625 C-16.88034825 51.98280258 -17 54.03905028 -17 58 C-14.02810322 57.39211202 -11.72890232 56.85701242 -9.7109375 54.484375 C-7.57440029 50.9490976 -6.48869408 48.21827387 -7 44 C-9.60886101 44 -12.33605162 47.35654517 -14.1875 48.9765625 Z " fill="#C6A977" transform="translate(150,77)"/>
<path d="M0 0 C3.54467056 1.18155685 3.81311183 1.90645392 5.6875 5 C14.7154954 18.92827652 26.57157185 27.67632077 42.74609375 31.6796875 C59.83358688 35.21837402 76.21588481 32.06660381 91 23 C92.06297902 22.10544272 93.11393139 21.19639844 94.15234375 20.2734375 C97 18 97 18 101 18 C98.53319664 24.63329441 90.32238727 28.99095617 84.09960938 31.88330078 C67.61079379 38.63760191 48.68598233 39.82318513 32 33 C19.39754455 27.43462034 5.3090329 17.2329626 0 4 C0 2.68 0 1.36 0 0 Z " fill="#C3A570" transform="translate(54,140)"/>
<path d="M0 0 C0.763125 0.433125 1.52625 0.86625 2.3125 1.3125 C2.3125 2.9625 2.3125 4.6125 2.3125 6.3125 C3.42322876 6.51613159 3.42322876 6.51613159 4.55639648 6.72387695 C7.95552694 7.35094739 11.35273592 7.98789889 14.75 8.625 C15.91466797 8.83833984 17.07933594 9.05167969 18.27929688 9.27148438 C33.16079338 12.08010484 33.16079338 12.08010484 37.3125 14.3125 C37.8075 15.7975 37.8075 15.7975 38.3125 17.3125 C32.82609706 16.60102796 27.46739457 15.54778571 22.0625 14.375 C15.1654581 12.89854043 8.26625642 11.50010784 1.3125 10.3125 C1.45480808 11.72952513 1.60150746 13.1461096 1.75 14.5625 C1.87181641 15.74585938 1.87181641 15.74585938 1.99609375 16.953125 C2.28884993 19.13614639 2.73314419 21.1898182 3.3125 23.3125 C2.3225 23.3125 1.3325 23.3125 0.3125 23.3125 C-2.27676331 20.72323669 -2.06148043 19.28544721 -2.3125 15.6875 C-2.38726562 14.68460938 -2.46203125 13.68171875 -2.5390625 12.6484375 C-2.58804688 11.87757813 -2.63703125 11.10671875 -2.6875 10.3125 C-3.84378906 10.22162109 -3.84378906 10.22162109 -5.0234375 10.12890625 C-6.02632812 10.04511719 -7.02921875 9.96132812 -8.0625 9.875 C-9.06023438 9.79378906 -10.05796875 9.71257812 -11.0859375 9.62890625 C-13.6875 9.3125 -13.6875 9.3125 -15.6875 8.3125 C-15.51171875 6.4921875 -15.51171875 6.4921875 -14.6875 4.3125 C-10.07740903 1.18674837 -5.5437475 -1.03358004 0 0 Z M-7.6875 5.3125 C-7.6875 5.6425 -7.6875 5.9725 -7.6875 6.3125 C-5.7075 6.3125 -3.7275 6.3125 -1.6875 6.3125 C-1.3575 4.9925 -1.0275 3.6725 -0.6875 2.3125 C-3.60444244 2.3125 -5.29526246 3.73865951 -7.6875 5.3125 Z " fill="#CAAD75" transform="translate(72.6875,126.6875)"/>
<path d="M0 0 C2.4375 1.9375 2.4375 1.9375 4 5 C4.30936646 8.03280558 4.23810226 10.96419621 4 14 C2.68 14 1.36 14 0 14 C-0.495 9.545 -0.495 9.545 -1 5 C-5.33258968 3.91685258 -5.65446695 3.93062846 -9.25 6 C-18.97140961 11.84555349 -28.32263712 20.96791136 -32 32 C-32.23294845 38.08568662 -32.23294845 38.08568662 -31 44 C-33.29104056 43.08358378 -34.75057101 42.30881685 -36.3125 40.375 C-37.73587335 35.45789207 -36.77812418 31.676315 -34.68359375 27.1640625 C-27.93898617 14.98934163 -15.64180238 -1.61811749 0 0 Z " fill="#CDAC7D" transform="translate(150,77)"/>
<path d="M0 0 C1.875 0.625 1.875 0.625 4 2 C5.125 4.75 5.125 4.75 6 8 C6.37125 9.11375 6.7425 10.2275 7.125 11.375 C7.558125 12.674375 7.558125 12.674375 8 14 C7.113125 14.103125 6.22625 14.20625 5.3125 14.3125 C1.91092251 15.01848778 -0.19034065 15.99310046 -3 18 C-3.33 18.66 -3.66 19.32 -4 20 C-4.66 20 -5.32 20 -6 20 C-7.98 15.71 -9.96 11.42 -12 7 C-10.68 6.67 -9.36 6.34 -8 6 C-6.96875 5.484375 -5.9375 4.96875 -4.875 4.4375 C-2 3 -2 3 0 3 C0 2.01 0 1.02 0 0 Z M0 6 C-0.33 6.66 -0.66 7.32 -1 8 C-0.67 8.99 -0.34 9.98 0 11 C1.32 10.67 2.64 10.34 4 10 C4 9.01 4 8.02 4 7 C2.68 6.67 1.36 6.34 0 6 Z M-6 9 C-6.33 10.32 -6.66 11.64 -7 13 C-6.01 13.33 -5.02 13.66 -4 14 C-3.34 13.67 -2.68 13.34 -2 13 C-2.33 11.68 -2.66 10.36 -3 9 C-3.99 9 -4.98 9 -6 9 Z " fill="#CCAD80" transform="translate(184,67)"/>
<path d="M0 0 C9.15021459 1.15021459 9.15021459 1.15021459 12.1875 4.1875 C13.41941565 8.45182341 13.08532937 12.02086998 10.9375 15.9375 C6.55388076 18.34142023 0.67500415 17.16875104 -4 16 C-3.69320312 15.43410156 -3.38640625 14.86820313 -3.0703125 14.28515625 C-1.99399349 11.98717588 -1.40298264 9.91399001 -0.875 7.4375 C-0.70742187 6.67308594 -0.53984375 5.90867187 -0.3671875 5.12109375 C0.08528766 2.86610126 0.08528766 2.86610126 0 0 Z M5 4 C4.01 6.97 3.02 9.94 2 13 C3.06645115 14.29633621 3.06645115 14.29633621 5.5625 14.0625 C6.366875 14.041875 7.17125 14.02125 8 14 C8.33 11.36 8.66 8.72 9 6 C7.68 5.34 6.36 4.68 5 4 Z " fill="#C8AB7A" transform="translate(123,25)"/>
<path d="M0 0 C4.75481646 0.57634139 7.97048212 2.55068521 12 5 C11.01437243 8.31529273 10.34552581 9.74949379 7.5 11.8125 C5 13 5 13 3 13 C3 12.01 3 11.02 3 10 C2.01 10.495 2.01 10.495 1 11 C1 11.66 1 12.32 1 13 C3.97 13.495 3.97 13.495 7 14 C6.34 15.65 5.68 17.3 5 19 C-0.75 17.125 -0.75 17.125 -3 16 C-3 15.34 -3 14.68 -3 14 C-3.99 14 -4.98 14 -6 14 C-6 13.01 -6 12.02 -6 11 C-5.01 11 -4.02 11 -3 11 C-1.38935371 7.34920174 -0.55105909 3.9492568 0 0 Z M4 5 C3.67 5.66 3.34 6.32 3 7 C4.65 7 6.3 7 8 7 C7.67 6.34 7.34 5.68 7 5 C6.01 5 5.02 5 4 5 Z " fill="#CAAA78" transform="translate(148,34)"/>
<path d="M0 0 C3.3 0.99 6.6 1.98 10 3 C10.33 4.98 10.66 6.96 11 9 C9.68 9.99 8.36 10.98 7 12 C7.33 12.598125 7.66 13.19625 8 13.8125 C9 16 9 16 9 19 C5.34683329 17.75023244 4.21934164 17.32901247 2 14 C2 14.66 2 15.32 2 16 C-0.97 15.505 -0.97 15.505 -4 15 C-4 14.34 -4 13.68 -4 13 C-3.34 13 -2.68 13 -2 13 C-1.66307215 11.39658445 -1.33058907 9.79223445 -1 8.1875 C-0.814375 7.29417969 -0.62875 6.40085938 -0.4375 5.48046875 C0.08684843 2.92739307 0.08684843 2.92739307 0 0 Z M5 4 C4.34 5.32 3.68 6.64 3 8 C4.65 7.67 6.3 7.34 8 7 C8 6.34 8 5.68 8 5 C7.01 4.67 6.02 4.34 5 4 Z " fill="#CBB074" transform="translate(81,179)"/>
<path d="M0 0 C1.11375 0.185625 1.11375 0.185625 2.25 0.375 C2.91 1.695 3.57 3.015 4.25 4.375 C6.89 4.045 9.53 3.715 12.25 3.375 C11.59 5.025 10.93 6.675 10.25 8.375 C9.59 8.375 8.93 8.375 8.25 8.375 C7.92 10.685 7.59 12.995 7.25 15.375 C4.25 15.375 4.25 15.375 2.4375 14 C0.24119588 12.17293663 0.24119588 12.17293663 -2.9375 11.4375 C-5.75 10.375 -5.75 10.375 -6.875 8.625 C-6.62850294 4.18805299 -4.50389635 0.61416768 0 0 Z M-2.75 3.375 C-3.08 4.365 -3.41 5.355 -3.75 6.375 C-2.76 6.705 -1.77 7.035 -0.75 7.375 C-0.09 7.045 0.57 6.715 1.25 6.375 C0.92 5.385 0.59 4.395 0.25 3.375 C-0.74 3.375 -1.73 3.375 -2.75 3.375 Z M4.25 8.375 C4.25 9.035 4.25 9.695 4.25 10.375 C4.91 10.375 5.57 10.375 6.25 10.375 C6.25 9.715 6.25 9.055 6.25 8.375 C5.59 8.375 4.93 8.375 4.25 8.375 Z " fill="#C3AC80" transform="translate(36.75,70.625)"/>
<path d="M0 0 C1.98 0 3.96 0 6 0 C6 4.95 6 9.9 6 15 C5.01 15.33 4.02 15.66 3 16 C1.02 13.69 -0.96 11.38 -3 9 C-3.08226668 12.04386724 -2.97608217 14.07175348 -2 17 C-3.65 17.33 -5.3 17.66 -7 18 C-7 16.68 -7 15.36 -7 14 C-7.12403812 12.47723412 -7.27047398 10.95615193 -7.4375 9.4375 C-7.51871094 8.67308594 -7.59992188 7.90867187 -7.68359375 7.12109375 C-7.96473136 4.8178068 -7.96473136 4.8178068 -9 2 C-7.3125 1.25 -7.3125 1.25 -5 1 C-1.87823497 3.08117669 -0.08898911 4.86651634 2 8 C2 6.68 2 5.36 2 4 C1.34 3.67 0.68 3.34 0 3 C0 2.01 0 1.02 0 0 Z " fill="#C1A770" transform="translate(104,24)"/>
<path d="M0 0 C2.65983437 0.93094203 3.93693393 1.5304009 5.5 3.875 C5.1875 6.0625 5.1875 6.0625 4.5 7.875 C3.88125 7.91625 3.2625 7.9575 2.625 8 C1.92375 8.28875 1.2225 8.5775 0.5 8.875 C-0.8045656 11.87115946 -0.8045656 11.87115946 -1.5 14.875 C-7.89559286 14.27164218 -7.89559286 14.27164218 -10.5 12.5625 C-11.5 10.875 -11.5 10.875 -11.375 8.8125 C-10.5 6.875 -10.5 6.875 -7.5 4.875 C-7.37625 5.679375 -7.2525 6.48375 -7.125 7.3125 C-6.815625 8.5809375 -6.815625 8.5809375 -6.5 9.875 C-5.84 10.205 -5.18 10.535 -4.5 10.875 C-4.8403125 8.9878125 -4.8403125 8.9878125 -5.1875 7.0625 C-5.66319696 3.17419442 -5.66319696 3.17419442 -4.375 0.8125 C-2.5 -0.125 -2.5 -0.125 0 0 Z M-0.5 3.875 C-0.17 4.865 0.16 5.855 0.5 6.875 C1.16 6.215 1.82 5.555 2.5 4.875 C1.51 4.545 0.52 4.215 -0.5 3.875 Z " fill="#CBAE78" transform="translate(171.5,50.125)"/>
<path d="M0 0 C0.99 0.66 1.98 1.32 3 2 C3 2.66 3 3.32 3 4 C3.66 4 4.32 4 5 4 C3.25 7.875 3.25 7.875 1 9 C1 7.02 1 5.04 1 3 C-1.91038542 3.02525184 -1.91038542 3.02525184 -5 4 C-6.93469849 6.95071844 -6.93469849 6.95071844 -8 10 C-7.01 10 -6.02 10 -5 10 C-4.34 9.34 -3.68 8.68 -3 8 C-1.68 8.99 -0.36 9.98 1 11 C0.67 11.99 0.34 12.98 0 14 C-2.5625 15.1875 -2.5625 15.1875 -5 16 C-7.33854192 14.39225243 -9.17138858 13.12012918 -11 11 C-11.60619325 7.16077608 -11.57343331 5.03764122 -9.6875 1.625 C-6.51516956 -1.42983672 -3.99152955 -1.09767063 0 0 Z " fill="#C0AA7F" transform="translate(66,169)"/>
<path d="M0 0 C2.375 1.5625 2.375 1.5625 4 4 C4.45674603 7.65396822 4.41282332 10.05293473 2.9375 13.4375 C1 15 1 15 -2.4375 15.5625 C-6 15 -6 15 -8.5 12.9375 C-10.45640324 9.10621033 -10.13891039 7.1000774 -9 3 C-6.75137054 -0.66881649 -4.0613504 -0.58019291 0 0 Z M-4 2 C-6.37994368 3.94332332 -6.37994368 3.94332332 -6.25 7.5 C-6.37994368 11.05667668 -6.37994368 11.05667668 -4 13 C-2.68 12.67 -1.36 12.34 0 12 C0 9.03 0 6.06 0 3 C-1.32 2.67 -2.64 2.34 -4 2 Z " fill="#C4AC7D" transform="translate(114,185)"/>
<path d="M0 0 C1.32 0.66 2.64 1.32 4 2 C3.67 2.99 3.34 3.98 3 5 C1.68 4.67 0.36 4.34 -1 4 C-1.33 4.66 -1.66 5.32 -2 6 C-1.30132812 5.97679687 -0.60265625 5.95359375 0.1171875 5.9296875 C1.02726562 5.91164063 1.93734375 5.89359375 2.875 5.875 C4.23238281 5.84019531 4.23238281 5.84019531 5.6171875 5.8046875 C8 6 8 6 10 8 C9.9375 10.375 9.9375 10.375 9 13 C6.4375 15.3125 6.4375 15.3125 4 17 C2.68 16.34 1.36 15.68 0 15 C0 14.01 0 13.02 0 12 C1.65 12 3.3 12 5 12 C5.33 11.34 5.66 10.68 6 10 C5.06027344 10.03480469 5.06027344 10.03480469 4.1015625 10.0703125 C2.87566406 10.09738281 2.87566406 10.09738281 1.625 10.125 C0.81289063 10.14820313 0.00078125 10.17140625 -0.8359375 10.1953125 C-3 10 -3 10 -5 8 C-4.875 5.5625 -4.875 5.5625 -4 3 C-1.9375 1.1875 -1.9375 1.1875 0 0 Z " fill="#C6AB81" transform="translate(57,43)"/>
<path d="M0 0 C0.66 0.66 1.32 1.32 2 2 C1.67 2.66 1.34 3.32 1 4 C1.309375 4.7425 1.61875 5.485 1.9375 6.25 C3.18253797 9.47245122 3.52071749 11.57814218 3 15 C0.4179611 17.28694874 -1.18550981 17.96121475 -4.625 18.125 C-7 17 -7 17 -8.8125 13.625 C-10 10 -10 10 -10 7 C-10.99 6.67 -11.98 6.34 -13 6 C-10.64046906 3.64046906 -9.22104383 3.50858587 -6 3 C-5.855625 4.051875 -5.71125 5.10375 -5.5625 6.1875 C-5.12473034 9.15460549 -4.62195134 12.06794366 -4 15 C-2.68 14.67 -1.36 14.34 0 14 C-0.33 10.7 -0.66 7.4 -1 4 C-1.99 4 -2.98 4 -4 4 C-3.67 3.01 -3.34 2.02 -3 1 C-2.01 0.67 -1.02 0.34 0 0 Z " fill="#C3A779" transform="translate(141,178)"/>
<path d="M0 0 C0.680625 0.268125 1.36125 0.53625 2.0625 0.8125 C3.1875 5.5625 3.1875 5.5625 2.0625 7.8125 C1.4025 7.8125 0.7425 7.8125 0.0625 7.8125 C1.3714572 10.93447478 1.3714572 10.93447478 4.0625 12.8125 C4.0625 13.4725 4.0625 14.1325 4.0625 14.8125 C1.5625 16.4375 1.5625 16.4375 -0.9375 17.8125 C-1.185 17.090625 -1.4325 16.36875 -1.6875 15.625 C-3.06627913 12.52274696 -4.64695672 10.31127449 -6.9375 7.8125 C-7.9275 7.4825 -8.9175 7.1525 -9.9375 6.8125 C-9.9375 6.1525 -9.9375 5.4925 -9.9375 4.8125 C-6.92976152 1.87410419 -4.27580632 -0.27292381 0 0 Z M-2.9375 2.8125 C-2.9375 4.1325 -2.9375 5.4525 -2.9375 6.8125 C-1.9475 6.4825 -0.9575 6.1525 0.0625 5.8125 C-0.2675 4.8225 -0.5975 3.8325 -0.9375 2.8125 C-1.5975 2.8125 -2.2575 2.8125 -2.9375 2.8125 Z " fill="#C5AD7D" transform="translate(160.9375,167.1875)"/>
<path d="M0 0 C3.1857029 1.39330742 5.19822217 3.02896738 7.5625 5.5625 C9.8343494 7.99626295 10.76779382 8.92259794 14 10 C11.82575883 12.50037734 10.26954202 13.43628586 7 14 C6.67 12.68 6.34 11.36 6 10 C5.01 10.33 4.02 10.66 3 11 C3.33 12.65 3.66 14.3 4 16 C2.68 16.33 1.36 16.66 0 17 C-1.54897985 13.9020403 -0.83239539 10.73783448 -0.5625 7.375 C-0.51029297 6.66859375 -0.45808594 5.9621875 -0.40429688 5.234375 C-0.27458793 3.48920013 -0.13795046 1.74454275 0 0 Z " fill="#C5AB69" transform="translate(75,32)"/>
<path d="M0 0 C2.08268593 -0.08126087 4.16628658 -0.13930839 6.25 -0.1875 C7.99023438 -0.23970703 7.99023438 -0.23970703 9.765625 -0.29296875 C13.25480857 0.02308049 14.61569922 0.47066876 17 3 C17.48258091 6.79170715 17.51879045 9.08032602 15.625 12.4375 C14 14 14 14 12 14 C12.33 11.03 12.66 8.06 13 5 C10.29816945 3.64908472 7.88191794 3.66141942 4.875 3.4375 C3.23144531 3.31181641 3.23144531 3.31181641 1.5546875 3.18359375 C0.71164063 3.12300781 -0.13140625 3.06242187 -1 3 C-0.67 2.01 -0.34 1.02 0 0 Z " fill="#C4A570" transform="translate(90,94)"/>
<path d="M0 0 C0.33 0.66 0.66 1.32 1 2 C1.66 2.33 2.32 2.66 3 3 C-3.75472516 8.24605558 -10.33203904 13.14665598 -18 17 C-18.33 15.68 -18.66 14.36 -19 13 C-18.21496094 12.56429687 -17.42992188 12.12859375 -16.62109375 11.6796875 C-10.5279468 8.22565818 -5.12646587 4.77693411 0 0 Z " fill="#CBAF81" transform="translate(101,106)"/>
<path d="M0 0 C2 2 2 2 2.0625 4.5625 C0.06848837 11.01371411 -4.49631316 16.17293299 -10 20 C-10.99 19.34 -11.98 18.68 -13 18 C-12.48050781 17.45472656 -11.96101562 16.90945312 -11.42578125 16.34765625 C-6.70794779 11.24611729 -3.06651585 6.23623174 0 0 Z " fill="#C8A978" transform="translate(165,139)"/>
<path d="M0 0 C0.33 0.99 0.66 1.98 1 3 C0.236875 3.144375 -0.52625 3.28875 -1.3125 3.4375 C-4.08172908 3.9632594 -4.08172908 3.9632594 -7 5 C-9.39490986 5.06970052 -11.79167691 5.08448003 -14.1875 5.0625 C-15.45980469 5.05347656 -16.73210937 5.04445313 -18.04296875 5.03515625 C-19.50669922 5.01775391 -19.50669922 5.01775391 -21 5 C-21 3.68 -21 2.36 -21 1 C-20.02160156 1.01740234 -20.02160156 1.01740234 -19.0234375 1.03515625 C-12.60055184 1.10146923 -6.37485793 -0.18749582 0 0 Z " fill="#D8BA8F" transform="translate(139,117)"/>
<path d="M0 0 C6.24460432 -0.60044272 6.24460432 -0.60044272 9.4375 1.9375 C11.53622409 6.05099921 11.35515259 9.47180448 11 14 C9.68 14 8.36 14 7 14 C6.67 11.03 6.34 8.06 6 5 C4.02 4.34 2.04 3.68 0 3 C0 2.01 0 1.02 0 0 Z " fill="#C7A26D" transform="translate(143,77)"/>
<path d="M0 0 C1.32 0.33 2.64 0.66 4 1 C4.33 2.98 4.66 4.96 5 7 C3.68 7.99 2.36 8.98 1 10 C1.33 10.598125 1.66 11.19625 2 11.8125 C3 14 3 14 3 17 C0.5625 16.3125 0.5625 16.3125 -2 15 C-2.8125 12.375 -2.8125 12.375 -3 10 C-2.34 10 -1.68 10 -1 10 C-1 9.34 -1 8.68 -1 8 C-1.66 8 -2.32 8 -3 8 C-3 7.34 -3 6.68 -3 6 C-2.360625 5.87625 -1.72125 5.7525 -1.0625 5.625 C-0.381875 5.41875 0.29875 5.2125 1 5 C1.33 4.34 1.66 3.68 2 3 C1.34 3 0.68 3 0 3 C0 2.01 0 1.02 0 0 Z " fill="#CEB185" transform="translate(87,181)"/>
<path d="M0 0 C0.99 0.33 1.98 0.66 3 1 C2.67 1.99 2.34 2.98 2 4 C0.49910642 9.24780522 0.25189215 14.75567646 2 20 C-0.29104056 19.08358378 -1.75057101 18.30881685 -3.3125 16.375 C-4.75010807 11.40871756 -3.47127058 7.0556461 -1.4375 2.5 C-0.963125 1.675 -0.48875 0.85 0 0 Z " fill="#C2A771" transform="translate(117,101)"/>
<path d="M0 0 C-0.609375 1.88671875 -0.609375 1.88671875 -2 4 C-4.828125 5.08203125 -4.828125 5.08203125 -8.25 5.8125 C-9.92835937 6.19341797 -9.92835937 6.19341797 -11.640625 6.58203125 C-15.04890999 7.00608531 -17.664463 6.74291506 -21 6 C-15.31469611 1.23555519 -7.34100891 -0.59521694 0 0 Z " fill="#C2A56D" transform="translate(105,48)"/>
<path d="M0 0 C2.625 -0.1875 2.625 -0.1875 5 0 C5.2475 0.639375 5.495 1.27875 5.75 1.9375 C6.81562433 4.18741541 6.81562433 4.18741541 9.125 4.75 C9.74375 4.8325 10.3625 4.915 11 5 C11 5.66 11 6.32 11 7 C9.68 7 8.36 7 7 7 C7 7.99 7 8.98 7 10 C6.01 10.33 5.02 10.66 4 11 C4 10.34 4 9.68 4 9 C3.01 8.67 2.02 8.34 1 8 C2.32 7.67 3.64 7.34 5 7 C3.27773504 3.75150023 3.27773504 3.75150023 0 3 C0 4.32 0 5.64 0 7 C-0.99 7 -1.98 7 -3 7 C-2.38722388 4.03824877 -1.74627478 2.61941217 0 0 Z " fill="#BFA676" transform="translate(34,71)"/>
<path d="M0 0 C0.66 0.33 1.32 0.66 2 1 C2 1.99 2 2.98 2 4 C2.66 4 3.32 4 4 4 C3.67 4.99 3.34 5.98 3 7 C-0.0625 8.1875 -0.0625 8.1875 -3 9 C-3 8.34 -3 7.68 -3 7 C-3.66 7 -4.32 7 -5 7 C-5 6.34 -5 5.68 -5 5 C-6.65 5.66 -8.3 6.32 -10 7 C-10 5.68 -10 4.36 -10 3 C-5.25 2.875 -5.25 2.875 -3 4 C-2.01 2.68 -1.02 1.36 0 0 Z " fill="#D3B37E" transform="translate(83,89)"/>
<path d="M0 0 C2.64 1.32 5.28 2.64 8 4 C7.01437243 7.31529273 6.34552581 8.74949379 3.5 10.8125 C1 12 1 12 -1 12 C-1 11.01 -1 10.02 -1 9 C-1.66 8.67 -2.32 8.34 -3 8 C-2.34 7.01 -1.68 6.02 -1 5 C0.32 5 1.64 5 3 5 C2.01 4.67 1.02 4.34 0 4 C0 2.68 0 1.36 0 0 Z " fill="#CDB08B" transform="translate(152,35)"/>
<path d="M0 0 C1.65 0.33 3.3 0.66 5 1 C4.71715982 2.77226453 4.42339502 4.542788 4.125 6.3125 C3.96257812 7.29863281 3.80015625 8.28476562 3.6328125 9.30078125 C3 12 3 12 1 15 C0.01 14.67 -0.98 14.34 -2 14 C-1.7834375 12.86111328 -1.7834375 12.86111328 -1.5625 11.69921875 C-1.2840625 10.20841797 -1.2840625 10.20841797 -1 8.6875 C-0.814375 7.70136719 -0.62875 6.71523438 -0.4375 5.69921875 C0.07999796 2.96218195 0.07999796 2.96218195 0 0 Z " fill="#C4AB78" transform="translate(123,25)"/>
<path d="M0 0 C0.66 0.66 1.32 1.32 2 2 C1.67 2.66 1.34 3.32 1 4 C1.309375 4.7425 1.61875 5.485 1.9375 6.25 C3.18253797 9.47245122 3.52071749 11.57814218 3 15 C0.6875 16.9375 0.6875 16.9375 -2 18 C-2.99 17.67 -3.98 17.34 -5 17 C-3.35 16.01 -1.7 15.02 0 14 C-0.33 10.7 -0.66 7.4 -1 4 C-1.99 4 -2.98 4 -4 4 C-3.67 3.01 -3.34 2.02 -3 1 C-2.01 0.67 -1.02 0.34 0 0 Z " fill="#C8B591" transform="translate(141,178)"/>
<path d="M0 0 C-1.62184501 3.58513106 -3.79256239 6.58992323 -6.125 9.75 C-6.84945312 10.73484375 -7.57390625 11.7196875 -8.3203125 12.734375 C-8.87460938 13.48203125 -9.42890625 14.2296875 -10 15 C-10.66 14.34 -11.32 13.68 -12 13 C-10.24177682 7.87184906 -6.24541902 0 0 0 Z " fill="#CAAB7D" transform="translate(130,89)"/>
<path d="M0 0 C0.78375 0.05220703 1.5675 0.10441406 2.375 0.15820312 C4.2920912 0.28678851 6.20861503 0.42378617 8.125 0.5625 C7.795 1.2225 7.465 1.8825 7.125 2.5625 C-0.43024875 4.10591161 -7.48592731 3.54054822 -14.875 1.5625 C-14.875 1.2325 -14.875 0.9025 -14.875 0.5625 C-9.77201229 -0.53798457 -5.15418151 -0.38001169 0 0 Z " fill="#C8A563" transform="translate(112.875,173.4375)"/>
<path d="M0 0 C1.32 0.33 2.64 0.66 4 1 C5.50934217 4.01868434 5.17510672 6.67297229 5 10 C4.01 11.485 4.01 11.485 3 13 C2.01 13 1.02 13 0 13 C0 8.71 0 4.42 0 0 Z " fill="#C3A470" transform="translate(113,186)"/>
<path d="M0 0 C5.66104589 0.49658297 9.87674471 1.54510684 15 4 C15 4.66 15 5.32 15 6 C9.86496656 5.35812082 5.0056546 4.31727753 0 3 C0 2.01 0 1.02 0 0 Z " fill="#D8B88A" transform="translate(96,138)"/>
<path d="M0 0 C1.75032844 0.14183696 3.50025534 0.28863429 5.25 0.4375 C6.71179688 0.55931641 6.71179688 0.55931641 8.203125 0.68359375 C12.97151538 1.22303456 12.97151538 1.22303456 15 2 C15.33 2.99 15.66 3.98 16 5 C9.79895188 5.27560214 4.06815522 4.22899346 -2 3 C-1.34 2.01 -0.68 1.02 0 0 Z " fill="#CFB380" transform="translate(81,135)"/>
<path d="M0 0 C1.875 0.25 1.875 0.25 4 1 C5.38495802 3.14668494 6 4.43871412 6 7 C6.515625 7.45375 7.03125 7.9075 7.5625 8.375 C8.036875 8.91125 8.51125 9.4475 9 10 C8.6875 12.1875 8.6875 12.1875 8 14 C7.34 14 6.68 14 6 14 C4.99770632 11.85521084 3.99807145 9.70925278 3 7.5625 C2.1646875 5.77005859 2.1646875 5.77005859 1.3125 3.94140625 C0 1 0 1 0 0 Z " fill="#D4BC94" transform="translate(172,73)"/>
<path d="M0 0 C3 2 3 2 3.6875 4.625 C3.790625 5.40875 3.89375 6.1925 4 7 C3.113125 7.12375 2.22625 7.2475 1.3125 7.375 C-1.70387502 7.94412736 -4.20326054 8.76614436 -7 10 C-7.33 8.68 -7.66 7.36 -8 6 C-6.02 5.67 -4.04 5.34 -2 5 C-2 4.34 -2 3.68 -2 3 C-1.34 3 -0.68 3 0 3 C0 2.01 0 1.02 0 0 Z " fill="#C9AB81" transform="translate(188,74)"/>
<path d="M0 0 C0.99 0.33 1.98 0.66 3 1 C3.6953125 2.9609375 3.6953125 2.9609375 4.125 5.375 C4.61930837 8.03732753 5.13999007 10.4199702 6 13 C4.35 13.33 2.7 13.66 1 14 C1 12.68 1 11.36 1 10 C0.8513773 8.24837531 0.68402733 6.49825963 0.5 4.75 C0.4071875 3.85796875 0.314375 2.9659375 0.21875 2.046875 C0.1465625 1.37140625 0.074375 0.6959375 0 0 Z " fill="#D7BE98" transform="translate(96,28)"/>
<path d="M0 0 C2.22825644 2.22825644 2.69239369 3.65761628 3.625 6.625 C3.88539062 7.44226563 4.14578125 8.25953125 4.4140625 9.1015625 C4.60742188 9.72804687 4.80078125 10.35453125 5 11 C4.34 11 3.68 11 3 11 C2.67 11.66 2.34 12.32 2 13 C1.32645501 11.56570999 0.66140299 10.12742943 0 8.6875 C-0.37125 7.88699219 -0.7425 7.08648437 -1.125 6.26171875 C-2 4 -2 4 -2 1 C-1.34 0.67 -0.68 0.34 0 0 Z " fill="#C7A97B" transform="translate(51,129)"/>
<path d="M0 0 C0.99 0.66 1.98 1.32 3 2 C2.67 3.32 2.34 4.64 2 6 C1.071875 6.12375 1.071875 6.12375 0.125 6.25 C-2.53489979 6.91214206 -2.53489979 6.91214206 -4 11 C-4.33 8.03 -4.66 5.06 -5 2 C-2.6875 0.875 -2.6875 0.875 0 0 Z M-3 2 C-2.67 2.99 -2.34 3.98 -2 5 C-1.34 4.34 -0.68 3.68 0 3 C-0.99 2.67 -1.98 2.34 -3 2 Z " fill="#E2C99C" transform="translate(174,52)"/>
<path d="M0 0 C1.65 0.99 3.3 1.98 5 3 C4.67 3.99 4.34 4.98 4 6 C1.4375 7.1875 1.4375 7.1875 -1 8 C-1.99 7.01 -2.98 6.02 -4 5 C-3.525625 4.54625 -3.05125 4.0925 -2.5625 3.625 C-0.90972192 2.06741796 -0.90972192 2.06741796 0 0 Z " fill="#CFBE9B" transform="translate(62,177)"/>
<path d="M0 0 C1.423125 0.495 1.423125 0.495 2.875 1 C5.77062452 2.10159191 5.77062452 2.10159191 8 2 C7.34 3.65 6.68 5.3 6 7 C0.25 5.125 0.25 5.125 -2 4 C-1.34 2.68 -0.68 1.36 0 0 Z " fill="#C2AC84" transform="translate(147,46)"/>
<path d="M0 0 C0.66 3.63 1.32 7.26 2 11 C1.01 11 0.02 11 -1 11 C-3 9 -3 9 -3.1953125 7.0546875 C-3.13020833 5.03645833 -3.06510417 3.01822917 -3 1 C-1 0 -1 0 0 0 Z " fill="#CAB384" transform="translate(74,139)"/>
<path d="M0 0 C0 0.66 0 1.32 0 2 C-1.40691607 2.72750788 -2.82606022 3.43140353 -4.25 4.125 C-5.03890625 4.51945312 -5.8278125 4.91390625 -6.640625 5.3203125 C-9 6 -9 6 -11.296875 5.1171875 C-11.85890625 4.74851562 -12.4209375 4.37984375 -13 4 C-4.738041 -0.59225513 -4.738041 -0.59225513 0 0 Z " fill="#D1B991" transform="translate(157,112)"/>
<path d="M0 0 C6.625 0.75 6.625 0.75 10 3 C9.34 3.66 8.68 4.32 8 5 C5.8359375 4.7578125 5.8359375 4.7578125 3.375 4.125 C2.55773437 3.92132813 1.74046875 3.71765625 0.8984375 3.5078125 C0.27195312 3.34023438 -0.35453125 3.17265625 -1 3 C-0.67 2.01 -0.34 1.02 0 0 Z " fill="#C3A775" transform="translate(123,49)"/>
<path d="M0 0 C0.33 0.66 0.66 1.32 1 2 C1.66 2 2.32 2 3 2 C4.04561999 5.13685998 4 7.72365939 4 11 C2.68 11.33 1.36 11.66 0 12 C-1.31157516 9.37684968 -0.89649988 7.76966564 -0.5625 4.875 C-0.46066406 3.96492188 -0.35882813 3.05484375 -0.25390625 2.1171875 C-0.17011719 1.41851562 -0.08632812 0.71984375 0 0 Z " fill="#C7B194" transform="translate(75,37)"/>
<path d="M0 0 C0.598125 0.350625 1.19625 0.70125 1.8125 1.0625 C1.8125 1.7225 1.8125 2.3825 1.8125 3.0625 C2.4725 3.0625 3.1325 3.0625 3.8125 3.0625 C2.0625 6.9375 2.0625 6.9375 -0.1875 8.0625 C-0.1875 6.0825 -0.1875 4.1025 -0.1875 2.0625 C-1.8375 2.0625 -3.4875 2.0625 -5.1875 2.0625 C-5.1875 1.4025 -5.1875 0.7425 -5.1875 0.0625 C-2.1875 -0.9375 -2.1875 -0.9375 0 0 Z " fill="#CFBB97" transform="translate(67.1875,169.9375)"/>
<path d="M0 0 C0.66 0.66 1.32 1.32 2 2 C1.79107816 5.27310883 1.56305786 7.32433057 -0.5625 9.875 C-1.2740625 10.431875 -1.2740625 10.431875 -2 11 C-2 10.01 -2 9.02 -2 8 C-2.66 7.67 -3.32 7.34 -4 7 C-2.68 4.69 -1.36 2.38 0 0 Z " fill="#D2B288" transform="translate(165,139)"/>
<path d="M0 0 C3.375 -0.1875 3.375 -0.1875 7 0 C7.66 0.99 8.32 1.98 9 3 C8.01 3.66 7.02 4.32 6 5 C2.8125 4.125 2.8125 4.125 0 3 C0 2.01 0 1.02 0 0 Z " fill="#C8A97A" transform="translate(143,77)"/>
<path d="M0 0 C1.65 0.33 3.3 0.66 5 1 C5 1.66 5 2.32 5 3 C3.68 3 2.36 3 1 3 C1 3.99 1 4.98 1 6 C0.01 6.33 -0.98 6.66 -2 7 C-2 6.34 -2 5.68 -2 5 C-2.99 4.67 -3.98 4.34 -5 4 C-4.0409375 3.8453125 -4.0409375 3.8453125 -3.0625 3.6875 C-2.381875 3.460625 -1.70125 3.23375 -1 3 C-0.67 2.01 -0.34 1.02 0 0 Z " fill="#CBAE6A" transform="translate(40,75)"/>
<path d="M0 0 C2 2 2 2 2 5 C2.66 5.33 3.32 5.66 4 6 C4 6.66 4 7.32 4 8 C2.1875 8.6875 2.1875 8.6875 0 9 C-1.8125 7.8125 -1.8125 7.8125 -3 6 C-2.72963853 3.02602384 -2.14553974 2.14553974 0 0 Z " fill="#DCC297" transform="translate(163,55)"/>
<path d="M0 0 C0.66 0.66 1.32 1.32 2 2 C2.99 1.67 3.98 1.34 5 1 C5.99 1.33 6.98 1.66 8 2 C8 2.99 8 3.98 8 5 C4.7 4.67 1.4 4.34 -2 4 C-1.34 2.68 -0.68 1.36 0 0 Z " fill="#D9C9A4" transform="translate(121,37)"/>
<path d="M0 0 C1.32 0.66 2.64 1.32 4 2 C3.67 2.99 3.34 3.98 3 5 C1.68 4.67 0.36 4.34 -1 4 C-1.99 5.485 -1.99 5.485 -3 7 C-3.66 7 -4.32 7 -5 7 C-4.60196439 4.11424181 -4.20990931 3.17810487 -1.9375 1.25 C-1.298125 0.8375 -0.65875 0.425 0 0 Z " fill="#C1B190" transform="translate(57,43)"/>
<path d="M0 0 C1.65 0.33 3.3 0.66 5 1 C5.33 1.99 5.66 2.98 6 4 C4.625 5.5 4.625 5.5 3 7 C2.34 7 1.68 7 1 7 C1 6.01 1 5.02 1 4 C0.34 3.67 -0.32 3.34 -1 3 C-0.67 2.01 -0.34 1.02 0 0 Z " fill="#DCC091" transform="translate(150,40)"/>
<path d="M0 0 C0.66 1.32 1.32 2.64 2 4 C-0.93720508 5.52299523 -3.9168649 6.80100302 -7 8 C-5.50902342 4.2047869 -3.24299151 2.38957269 0 0 Z " fill="#D9BF8F" transform="translate(132,84)"/>
<path d="M0 0 C-0.66 1.65 -1.32 3.3 -2 5 C-2.66 5 -3.32 5 -4 5 C-4.33 5.99 -4.66 6.98 -5 8 C-5.66 7.67 -6.32 7.34 -7 7 C-6.67 6.34 -6.34 5.68 -6 5 C-6.66 4.67 -7.32 4.34 -8 4 C-6.68 4 -5.36 4 -4 4 C-4.33 3.01 -4.66 2.02 -5 1 C-3 0 -3 0 0 0 Z " fill="#DCBC9B" transform="translate(49,74)"/>
<path d="M0 0 C-0.125 1.875 -0.125 1.875 -1 4 C-4.0625 5.25 -4.0625 5.25 -7 6 C-7 5.34 -7 4.68 -7 4 C-7.66 3.67 -8.32 3.34 -9 3 C-2.25 0 -2.25 0 0 0 Z " fill="#CFAA71" transform="translate(83,120)"/>
<path d="M0 0 C3.96 0.33 7.92 0.66 12 1 C12 1.66 12 2.32 12 3 C8.37 3 4.74 3 1 3 C0.67 2.01 0.34 1.02 0 0 Z " fill="#D1AF7F" transform="translate(118,118)"/>
<path d="M0 0 C0.33 0 0.66 0 1 0 C1.66 2.97 2.32 5.94 3 9 C0.03 8.505 0.03 8.505 -3 8 C-3 7.34 -3 6.68 -3 6 C-2.34 6 -1.68 6 -1 6 C-0.67 4.02 -0.34 2.04 0 0 Z " fill="#C1A981" transform="translate(80,186)"/>
<path d="M0 0 C1.98 0 3.96 0 6 0 C6.33 0.66 6.66 1.32 7 2 C1.25 5 1.25 5 -1 5 C-0.67 3.35 -0.34 1.7 0 0 Z " fill="#CCAD82" transform="translate(81,54)"/>
<path d="M0 0 C2.625 -0.1875 2.625 -0.1875 5 0 C5 0.99 5 1.98 5 3 C3.02 3.66 1.04 4.32 -1 5 C-1.33 4.34 -1.66 3.68 -2 3 C-1.34 2.01 -0.68 1.02 0 0 Z " fill="#CAB48F" transform="translate(83,41)"/>
<path d="M0 0 C0.66 0.66 1.32 1.32 2 2 C1.67 2.66 1.34 3.32 1 4 C1.33 4.99 1.66 5.98 2 7 C1.01 7 0.02 7 -1 7 C-1 6.01 -1 5.02 -1 4 C-1.99 4 -2.98 4 -4 4 C-3.67 3.01 -3.34 2.02 -3 1 C-2.01 0.67 -1.02 0.34 0 0 Z " fill="#C3AC8A" transform="translate(141,178)"/>
<path d="M0 0 C0 2.31 0 4.62 0 7 C-0.99 7.495 -0.99 7.495 -2 8 C-2.33 6.35 -2.66 4.7 -3 3 C-3.66 3 -4.32 3 -5 3 C-5 2.34 -5 1.68 -5 1 C-2 0 -2 0 0 0 Z " fill="#D0AF81" transform="translate(135,181)"/>
<path d="M0 0 C3.2578125 0.4609375 3.2578125 0.4609375 7.125 1.375 C8.40632813 1.67148438 9.68765625 1.96796875 11.0078125 2.2734375 C12.48894531 2.63308594 12.48894531 2.63308594 14 3 C14 3.33 14 3.66 14 4 C8.21101581 4.20674944 3.57067277 3.59162079 -2 2 C-1.34 1.34 -0.68 0.68 0 0 Z " fill="#B99A6D" transform="translate(94,173)"/>
<path d="M0 0 C3.04386724 -0.08226668 5.07175348 0.02391783 8 1 C7.67 1.99 7.34 2.98 7 4 C6.34 4 5.68 4 5 4 C5 3.34 5 2.68 5 2 C3.35 2.66 1.7 3.32 0 4 C0 2.68 0 1.36 0 0 Z " fill="#CBB58F" transform="translate(73,92)"/>
<path d="M0 0 C0.33 0.66 0.66 1.32 1 2 C-1.05233685 4.2477975 -2.00667261 5.0022242 -5 6 C-5.33 4.68 -5.66 3.36 -6 2 C-4.02 1.34 -2.04 0.68 0 0 Z " fill="#C7A572" transform="translate(186,78)"/>
<path d="M0 0 C1.98 0 3.96 0 6 0 C6.33 0.99 6.66 1.98 7 3 C5.35 3.66 3.7 4.32 2 5 C1.34 4.34 0.68 3.68 0 3 C0 2.01 0 1.02 0 0 Z " fill="#D6BEA3" transform="translate(57,55)"/>
<path d="M0 0 C0 1.32 0 2.64 0 4 C-5.75 2.25 -5.75 2.25 -8 0 C-4.71023192 -1.09658936 -3.28696233 -0.79953138 0 0 Z " fill="#BE9E6B" transform="translate(88,169)"/>
<path d="M0 0 C0.9075 0.391875 1.815 0.78375 2.75 1.1875 C-0.00924185 2.99161967 -1.13972103 3.2002245 -4.5 2.8125 C-5.4075 2.60625 -6.315 2.4 -7.25 2.1875 C-4.52596974 -0.53653026 -3.86366821 -0.96591705 0 0 Z " fill="#C5AD74" transform="translate(91.25,51.8125)"/>
<path d="M0 0 C0.99 0.33 1.98 0.66 3 1 C3.33 3.31 3.66 5.62 4 8 C3.01 8 2.02 8 1 8 C0.67 5.36 0.34 2.72 0 0 Z " fill="#DBC8AF" transform="translate(96,28)"/>
<path d="M0 0 C1.98 0.66 3.96 1.32 6 2 C6 2.99 6 3.98 6 5 C5.21625 4.835 4.4325 4.67 3.625 4.5 C1.11791961 3.9376293 1.11791961 3.9376293 -1 4 C-0.67 2.68 -0.34 1.36 0 0 Z " fill="#D7C58A" transform="translate(128,26)"/>
<path d="M0 0 C-0.33 0.66 -0.66 1.32 -1 2 C-2.65 2 -4.3 2 -6 2 C-6.33 2.66 -6.66 3.32 -7 4 C-7.66 4 -8.32 4 -9 4 C-8.6875 2.0625 -8.6875 2.0625 -8 0 C-4.71023192 -1.09658936 -3.28696233 -0.79953138 0 0 Z " fill="#D0B286" transform="translate(66,131)"/>
<path d="M0 0 C2 1 2 1 3 3 C1.1875 4.0625 1.1875 4.0625 -1 5 C-1.99 4.67 -2.98 4.34 -4 4 C-4 3.34 -4 2.68 -4 2 C-2.125 0.9375 -2.125 0.9375 0 0 Z " fill="#D3B38B" transform="translate(137,133)"/>
<path d="M0 0 C0.33 0.66 0.66 1.32 1 2 C1.66 2.33 2.32 2.66 3 3 C2.01 4.32 1.02 5.64 0 7 C-0.99 6.67 -1.98 6.34 -3 6 C-2 4 -1 2 0 0 Z " fill="#CDB188" transform="translate(134,123)"/>
<path d="M0 0 C2.625 -0.1875 2.625 -0.1875 5 0 C5.33 0.99 5.66 1.98 6 3 C2.71023192 4.09658936 1.28696233 3.79953138 -2 3 C-1.34 2.01 -0.68 1.02 0 0 Z " fill="#D2B47F" transform="translate(134,117)"/>
<path d="M0 0 C0.33 0.66 0.66 1.32 1 2 C-3.455 3.485 -3.455 3.485 -8 5 C-7.67 3.68 -7.34 2.36 -7 1 C-3.535 0.505 -3.535 0.505 0 0 Z " fill="#CEB38D" transform="translate(38,76)"/>
<path d="M0 0 C1.98 0.99 1.98 0.99 4 2 C4 2.99 4 3.98 4 5 C4.66 5.33 5.32 5.66 6 6 C4.68 6.33 3.36 6.66 2 7 C0.5393715 4.35261084 0 3.10551666 0 0 Z " fill="#D7B791" transform="translate(180,73)"/>
<path d="M0 0 C1.875 0.3125 1.875 0.3125 4 1 C4.66 1.99 5.32 2.98 6 4 C5.34 4 4.68 4 4 4 C4 4.66 4 5.32 4 6 C3.34 6 2.68 6 2 6 C1.34 4.02 0.68 2.04 0 0 Z " fill="#CFB189" transform="translate(172,73)"/>
<path d="M0 0 C1.65 0.99 3.3 1.98 5 3 C4.67 3.66 4.34 4.32 4 5 C2.35 5 0.7 5 -1 5 C-0.67 3.35 -0.34 1.7 0 0 Z " fill="#C7AF87" transform="translate(62,177)"/>
<path d="M0 0 C1.65 0.33 3.3 0.66 5 1 C5.33 1.99 5.66 2.98 6 4 C3.69 3.67 1.38 3.34 -1 3 C-0.67 2.01 -0.34 1.02 0 0 Z " fill="#D6C499" transform="translate(105,140)"/>
<path d="M0 0 C1.875 0.25 1.875 0.25 4 1 C5.25 3.0625 5.25 3.0625 6 5 C5.01 5.495 5.01 5.495 4 6 C1 4 1 4 0.3125 1.875 C0.209375 1.25625 0.10625 0.6375 0 0 Z " fill="#CDAB7A" transform="translate(158,71)"/>
<path d="M0 0 C1.32 0.66 2.64 1.32 4 2 C4 2.66 4 3.32 4 4 C0.25 5.125 0.25 5.125 -2 4 C-1.34 2.68 -0.68 1.36 0 0 Z " fill="#DFC9A1" transform="translate(147,46)"/>
<path d="M0 0 C0.33 0 0.66 0 1 0 C1.125 5.75 1.125 5.75 0 8 C-0.99 7.67 -1.98 7.34 -3 7 C-2.67 5.35 -2.34 3.7 -2 2 C-1.34 2 -0.68 2 0 2 C0 1.34 0 0.68 0 0 Z " fill="#C7A46D" transform="translate(124,32)"/>
<path d="M0 0 C3.36720387 1.39332574 4.9859524 2.9789286 7 6 C6.21625 5.649375 5.4325 5.29875 4.625 4.9375 C3.75875 4.628125 2.8925 4.31875 2 4 C1.01 4.495 1.01 4.495 0 5 C0 3.35 0 1.7 0 0 Z " fill="#BDA57D" transform="translate(75,32)"/>
<path d="M0 0 C1.32 0.66 2.64 1.32 4 2 C3.01 2.99 2.02 3.98 1 5 C-0.32 4.34 -1.64 3.68 -3 3 C-2.01 2.01 -1.02 1.02 0 0 Z " fill="#CFB58C" transform="translate(156,168)"/>
<path d="M0 0 C0.66 0.66 1.32 1.32 2 2 C1.63318342 4.93453261 1.13562754 5.86437246 -1 8 C-1.625 5.125 -1.625 5.125 -2 2 C-1.34 1.34 -0.68 0.68 0 0 Z " fill="#CBB287" transform="translate(170,88)"/>
<path d="M0 0 C2.31 0 4.62 0 7 0 C6.67 0.99 6.34 1.98 6 3 C3.03 2.505 3.03 2.505 0 2 C0 1.34 0 0.68 0 0 Z " fill="#C4A46B" transform="translate(58,50)"/>
<path d="M0 0 C2.6875 1.4375 2.6875 1.4375 5 3 C1.94736336 3.98120464 0.05263664 3.98120464 -3 3 C-3 2.34 -3 1.68 -3 1 C-2.01 0.67 -1.02 0.34 0 0 Z " fill="#C0AC80" transform="translate(98,25)"/>
</svg>
